<?xml version="1.0" standalone="no"?>
<!DOCTYPE svg PUBLIC "-//W3C//DTD SVG 20010904//EN"
 "http://www.w3.org/TR/2001/REC-SVG-20010904/DTD/svg10.dtd">
<svg version="1.0" xmlns="http://www.w3.org/2000/svg"
 width="980.000000pt" height="980.000000pt" viewBox="0 0 980.000000 980.000000"
 preserveAspectRatio="xMidYMid meet">

<g transform="translate(0.000000,980.000000) scale(0.100000,-0.100000)"
fill="#000000" stroke="none">
<path d="M0 4900 l0 -4900 4900 0 4900 0 0 4900 0 4900 -4900 0 -4900 0 0
-4900z m4040 689 c113 -237 208 -432 211 -434 5 -4 76 144 328 678 l60 127 50
0 c36 0 51 -4 51 -13 0 -8 -54 -128 -121 -268 -66 -140 -144 -303 -172 -364
-146 -308 -186 -390 -194 -392 -4 -2 -27 39 -51 89 -23 51 -129 275 -235 498
l-193 405 -232 3 c-128 1 -232 1 -232 -1 0 -1 57 -122 126 -267 175 -368 460
-969 626 -1320 77 -162 143 -299 147 -303 4 -4 165 327 358 735 l349 743 47 3
47 3 125 -257 c69 -141 125 -261 125 -267 0 -14 -44 -107 -51 -107 -3 0 -56
108 -119 240 -62 132 -116 240 -120 240 -6 0 -504 -1043 -707 -1479 -26 -56
-47 -91 -53 -85 -9 9 -105 209 -520 1084 -100 212 -250 527 -333 700 -171 360
-197 417 -197 430 0 6 126 10 338 10 l338 0 204 -431z m2600 422 c0 -5 -64
-139 -141 -298 -286 -583 -380 -775 -529 -1078 -84 -170 -212 -433 -286 -582
l-133 -273 -50 0 c-28 0 -51 4 -51 9 0 14 65 151 285 596 108 220 225 459 260
530 35 72 158 323 274 558 116 236 211 433 211 438 0 5 -98 9 -230 9 l-230 0
-14 -32 c-16 -37 -19 -45 -341 -718 -130 -272 -291 -611 -358 -752 l-122 -258
-51 0 -51 0 -66 138 c-36 75 -91 191 -122 256 l-56 119 28 53 c15 29 30 50 34
46 3 -4 55 -111 115 -239 60 -128 112 -232 116 -233 4 0 25 37 46 83 22 45
178 372 347 727 169 355 336 705 371 778 l63 132 341 0 c195 0 340 -4 340 -9z"/>
</g>
</svg>
